<svg xmlns="http://www.w3.org/2000/svg" version="1.1" xmlns:xlink="http://www.w3.org/1999/xlink" xmlns:svgjs="http://svgjs.com/svgjs" width="30" height="30" x="0" y="0" viewBox="0 0 32 32" style="enable-background:new 0 0 512 512" xml:space="preserve" class=""><g><path fill="#fff1d8" d="M26 32H6a6 6 0 0 1-6-6V6a6 6 0 0 1 6-6h20a6 6 0 0 1 6 6v20a6 6 0 0 1-6 6z" data-original="#fff9dd" class=""></path><path fill="#fda400" d="M23.974 14.077a.5.5 0 0 0-.399-.335l-4.919-.752-2.204-4.696c-.165-.351-.74-.351-.905 0l-2.204 4.696-4.919.752a.501.501 0 0 0-.282.843l3.574 3.663-.845 5.178a.5.5 0 0 0 .735.518L16 21.515l4.394 2.428a.5.5 0 0 0 .735-.517l-.845-5.178 3.574-3.663a.499.499 0 0 0 .116-.508z" data-original="#ffd200" class=""></path></g></svg>